name rise45.9887peak57.8056fall74.9286.mot
datacolumns 19
datarows 37
range 12.494955 12.554964
endheader
time	ground_force1_vx	ground_force1_vy	ground_force1_vz	ground_force1_px	ground_force1_py	ground_force1_pz	ground_force2_vx	ground_force2_vy	ground_force2_vz	ground_force2_px	ground_force2_py	ground_force2_pz	ground_torque1_x	ground_torque1_y	ground_torque1_z	ground_torque2_x	ground_torque2_y	ground_torque2_z	
12.494955	0.000000	0.000000	0.000000	0.000000	0.000000	0.000000	-39.308038	822.904390	-54.184441	0.180768	0.000000	-0.080528	0.000000	0.000000	0.000000	0.000000	-24.550353	0.000000	
12.496616	0.000000	0.000000	0.000000	0.000000	0.000000	0.000000	-39.765004	822.363157	-54.188249	0.179848	0.000000	-0.080448	0.000000	0.000000	0.000000	0.000000	-24.476914	0.000000	
12.498287	0.000000	0.000000	0.000000	0.000000	0.000000	0.000000	-40.239929	821.722602	-54.179583	0.178918	0.000000	-0.080367	0.000000	0.000000	0.000000	0.000000	-24.403325	0.000000	
12.499956	0.000000	0.000000	0.000000	0.000000	0.000000	0.000000	-40.733293	820.980135	-54.157956	0.177977	0.000000	-0.080284	0.000000	0.000000	0.000000	0.000000	-24.329644	0.000000	
12.501617	0.000000	0.000000	0.000000	0.000000	0.000000	0.000000	-41.245514	820.133107	-54.122871	0.177026	0.000000	-0.080201	0.000000	0.000000	0.000000	0.000000	-24.255918	0.000000	
12.503287	0.000000	0.000000	0.000000	0.000000	0.000000	0.000000	-41.776937	819.178799	-54.073833	0.176066	0.000000	-0.080115	0.000000	0.000000	0.000000	0.000000	-24.182183	0.000000	
12.504954	0.000000	0.000000	0.000000	0.000000	0.000000	0.000000	-42.327835	818.114432	-54.010339	0.175096	0.000000	-0.080028	0.000000	0.000000	0.000000	0.000000	-24.108467	0.000000	
12.506625	-0.958370	3.617414	-1.258144	0.000000	0.000000	0.000000	-42.898404	816.937162	-53.931887	0.174118	0.000000	-0.079939	0.000000	-0.548392	0.000000	0.000000	-24.034786	0.000000	
12.508290	-1.508329	7.216355	-2.110229	0.000000	0.000000	0.000000	-43.488761	815.644083	-53.837973	0.173133	0.000000	-0.079848	0.000000	-0.922025	0.000000	0.000000	-23.961143	0.000000	
12.509952	-2.124014	11.597606	-3.094135	0.000000	0.000000	0.000000	-44.098937	814.232230	-53.728092	0.172140	0.000000	-0.079756	0.000000	-1.354195	0.000000	0.000000	-23.887533	0.000000	
12.511622	-2.784554	16.723535	-4.185910	0.000000	0.000000	0.000000	-44.728878	812.698583	-53.601741	0.171142	0.000000	-0.079661	0.000000	-1.834690	0.000000	0.000000	-23.813937	0.000000	
12.513292	-3.464298	22.522894	-5.353979	0.000000	0.000000	0.000000	-45.378440	811.040067	-53.458422	0.170138	0.000000	-0.079564	0.000000	-2.349991	0.000000	0.000000	-23.740323	0.000000	
12.514956	-4.134447	28.896265	-6.561215	0.326758	0.000000	0.095541	-46.047388	809.253561	-53.297639	0.169131	0.000000	-0.079465	0.000000	-4.633092	0.000000	0.000000	-23.666649	0.000000	
12.516621	-4.765072	35.724492	-7.767662	0.332097	0.000000	0.096625	-46.735391	807.335900	-53.118902	0.168120	0.000000	-0.079364	0.000000	-5.539274	0.000000	0.000000	-23.592859	0.000000	
12.518287	-5.327289	42.878989	-8.933561	0.336931	0.000000	0.097584	-47.442022	805.283883	-52.921731	0.167108	0.000000	-0.079260	0.000000	-6.430812	0.000000	0.000000	-23.518885	0.000000	
12.519950	-5.795286	50.232446	-10.022273	0.341355	0.000000	0.098442	-48.166756	803.094277	-52.705652	0.166095	0.000000	-0.079153	0.000000	-7.280945	0.000000	0.000000	-23.444646	0.000000	
12.521617	-6.147943	57.668488	-11.002704	0.345443	0.000000	0.099213	-48.908967	800.763826	-52.470206	0.165082	0.000000	-0.079044	0.000000	-8.066500	0.000000	0.000000	-23.370048	0.000000	
12.523289	-6.369907	65.089281	-11.851013	0.349250	0.000000	0.099911	-49.667930	798.289257	-52.214946	0.164071	0.000000	-0.078932	0.000000	-8.769231	0.000000	0.000000	-23.294984	0.000000	
12.524958	-6.452043	72.420514	-12.551494	0.352822	0.000000	0.100548	-50.442816	795.667292	-51.939441	0.163062	0.000000	-0.078816	0.000000	-9.376567	0.000000	0.000000	-23.219335	0.000000	
12.526622	-6.391332	79.613671	-13.096656	0.356195	0.000000	0.101131	-51.232695	792.894650	-51.643279	0.162058	0.000000	-0.078698	0.000000	-9.881793	0.000000	0.000000	-23.142970	0.000000	
12.528285	-6.190281	86.645807	-13.486626	0.359396	0.000000	0.101667	-52.036534	789.968066	-51.326067	0.161059	0.000000	-0.078577	0.000000	-10.283728	0.000000	0.000000	-23.065743	0.000000	
12.529952	-5.855988	93.517255	-13.728028	0.362450	0.000000	0.102163	-52.853198	786.884292	-50.987436	0.160067	0.000000	-0.078452	0.000000	-10.585990	0.000000	0.000000	-22.987499	0.000000	
12.531624	-5.398997	100.247817	-13.832522	0.365374	0.000000	0.102623	-53.681451	783.640110	-50.627041	0.159083	0.000000	-0.078323	0.000000	-10.796008	0.000000	0.000000	-22.908068	0.000000	
12.533290	-4.832075	106.872022	-13.815190	0.368184	0.000000	0.103051	-54.519954	780.232348	-50.244568	0.158108	0.000000	-0.078191	0.000000	-10.923880	0.000000	0.000000	-22.827270	0.000000	
12.534951	-4.169012	113.433997	-13.692919	0.370894	0.000000	0.103451	-55.367272	776.657883	-49.839730	0.157143	0.000000	-0.078056	0.000000	-10.981213	0.000000	0.000000	-22.744914	0.000000	
12.536618	-3.423564	119.982445	-13.482920	0.373512	0.000000	0.103825	-56.221869	772.913659	-49.412275	0.156190	0.000000	-0.077917	0.000000	-10.980034	0.000000	0.000000	-22.660799	0.000000	
12.538285	-2.608571	126.566113	-13.201474	0.376049	0.000000	0.104177	-57.082118	768.996698	-48.961987	0.155249	0.000000	-0.077773	0.000000	-10.931858	0.000000	0.000000	-22.574712	0.000000	
12.539957	-1.735309	133.230011	-12.862973	0.378510	0.000000	0.104508	-57.946296	764.904113	-48.488686	0.154323	0.000000	-0.077626	0.000000	-10.846948	0.000000	0.000000	-22.486431	0.000000	
12.541620	-0.813070	140.012556	-12.479264	0.380901	0.000000	0.104821	-58.812593	760.633121	-47.992235	0.153412	0.000000	-0.077475	0.000000	-10.733794	0.000000	0.000000	-22.395726	0.000000	
12.543285	0.151022	146.943686	-12.059308	0.383227	0.000000	0.105116	-59.679110	756.181057	-47.472540	0.152518	0.000000	-0.077320	0.000000	-10.598829	0.000000	0.000000	-22.302358	0.000000	
12.544958	1.152004	154.043922	-11.609116	0.385492	0.000000	0.105396	-60.543868	751.545393	-46.929550	0.151641	0.000000	-0.077160	0.000000	-10.446336	0.000000	0.000000	-22.206080	0.000000	
12.546624	2.186896	161.324267	-11.131915	0.387699	0.000000	0.105661	-61.404811	746.723747	-46.363264	0.150782	0.000000	-0.076996	0.000000	-10.278541	0.000000	0.000000	-22.106638	0.000000	
12.548288	3.254407	168.786803	-10.628499	0.389851	0.000000	0.105913	-62.259809	741.713907	-45.773728	0.149943	0.000000	-0.076827	0.000000	-10.095844	0.000000	0.000000	-22.003775	0.000000	
12.549956	4.354566	176.425816	-10.097696	0.391948	0.000000	0.106153	-63.106662	736.513840	-45.161040	0.149125	0.000000	-0.076654	0.000000	-9.897142	0.000000	0.000000	-21.897224	0.000000	
12.551616	5.488316	184.229258	-9.536894	0.393993	0.000000	0.106382	-63.943110	731.121714	-44.525351	0.148328	0.000000	-0.076477	0.000000	-9.680216	0.000000	0.000000	-21.786716	0.000000	
12.553284	6.657110	192.180385	-8.942592	0.395986	0.000000	0.106600	-64.766835	725.535915	-43.866865	0.147553	0.000000	-0.076295	0.000000	-9.442123	0.000000	0.000000	-21.671981	0.000000	
12.554964	7.862543	200.259413	-8.310906	0.397929	0.000000	0.106808	-65.575467	719.755060	-43.185840	0.146801	0.000000	-0.076108	0.000000	-9.179585	0.000000	0.000000	-21.552741	0.000000	
